<svg width="52" height="52" viewBox="0 0 52 52" fill="currentColor" xmlns="http://www.w3.org/2000/svg">
<circle cx="26" cy="26" r="26" fill="#25282C"/>
<path d="M37.5 27H15.5C14.948 27 14.5 26.553 14.5 26C14.5 25.447 14.948 25 15.5 25H37.5C38.052 25 38.5 25.447 38.5 26C38.5 26.553 38.052 27 37.5 27Z" fill="white"/>
<path d="M37.5 20H26.5C25.948 20 25.5 19.553 25.5 19C25.5 18.447 25.948 18 26.5 18H37.5C38.052 18 38.5 18.447 38.5 19C38.5 19.553 38.052 20 37.5 20Z" fill="white"/>
<path d="M26.5 34H15.5C14.948 34 14.5 33.553 14.5 33C14.5 32.447 14.948 32 15.5 32H26.5C27.052 32 27.5 32.447 27.5 33C27.5 33.553 27.052 34 26.5 34Z" fill="white"/>
</svg>
