<svg width="25" height="16" viewBox="0 0 25 16" fill="none" xmlns="http://www.w3.org/2000/svg">
<path d="M23.5 9H1.5C0.948 9 0.5 8.553 0.5 8C0.5 7.447 0.948 7 1.5 7H23.5C24.052 7 24.5 7.447 24.5 8C24.5 8.553 24.052 9 23.5 9Z" fill="black"/>
<path d="M23.5 2H12.5C11.948 2 11.5 1.553 11.5 1C11.5 0.447 11.948 0 12.5 0H23.5C24.052 0 24.5 0.447 24.5 1C24.5 1.553 24.052 2 23.5 2Z" fill="black"/>
<path d="M12.5 16H1.5C0.948 16 0.5 15.553 0.5 15C0.5 14.447 0.948 14 1.5 14H12.5C13.052 14 13.5 14.447 13.5 15C13.5 15.553 13.052 16 12.5 16Z" fill="black"/>
</svg>
